<svg xmlns="http://www.w3.org/2000/svg" viewBox="14 12 88 106">
  <path fill="#2FAC66" d="M58.62,17.91c7.92,24.5-31.1,30.22-24.3,56.33c1.48,5.68,5.79,11.55,18.87,17.32c-8.63-12.78-4.19-23.57,7.34-33.3c-1.08,22.9,17.78,12.64,7.19,33.3C91.01,80.74,93.8,65.13,79.3,45.49c0.46,11.19-2.96,16.52-6.75,13.63c-1.05-1.13-1.6-2.52,0.44-8.72C77.73,36.02,70.12,23.03,58.62,17.91z"/>
  <path fill="#158F51" d="M58.62,17.91C77.83,52.54,43.75,49.6,42.79,72.2c-0.24,5.68,1.01,12.18,10.4,19.37c-8.63-12.78-4.19-23.57,7.34-33.3c-1.08,22.9,17.78,12.64,7.19,33.3C91.01,80.74,93.8,65.13,79.3,45.49c0.46,11.19-2.96,16.52-6.75,13.63c-1.05-1.13-1.6-2.52,0.44-8.72C77.73,36.02,70.12,23.03,58.62,17.91z"/>
  <path fill="#158F51" d="M24.77,96.5l3.67-6.46c16.06,2.2,27.91,6.79,32.46,15.55C49.12,96.74,37.02,95.1,24.77,96.5z"/>
  <path fill="#158F51" d="M96.99,96.5l-3.67-6.46c-16.06,2.2-27.91,6.79-32.46,15.55C72.63,96.74,84.74,95.1,96.99,96.5z"/>
  <path fill="#EF7C1E" d="M19.78,99.72l2.2,6.75c13.54-2.73,25.35-2.02,33.3,6.31c3.71,3.76,7.53,3.67,11.44,0c10.59-8.31,21.71-8.66,33.01-6.53l2.2-6.53c-21.37-2.6-33.19,1.68-41.08,8.8C51.85,99.44,37.23,97.73,19.78,99.72z"/>
</svg>
